<svg width="524" height="472" viewBox="0 0 524 472" fill="none" xmlns="http://www.w3.org/2000/svg">
<path fill-rule="evenodd" clip-rule="evenodd" d="M0 217.027C17.5924 204.484 33.1467 188.065 49.1957 173.56C58.8098 164.87 70.451 157.397 78.913 147.56C81.7336 135.826 79.6412 121.353 79.7064 109.288C79.8206 87.3914 81.3641 65.0326 80.1413 43.1902C85.7826 40.2717 93.1195 41.5 99.3641 41.5761C114.147 41.7663 130.837 39.3206 145.359 41.9783C143.984 58.0054 144.989 74.1957 143.5 90.2718C145.158 91.6196 149.571 86.5272 150.674 85.2772C156.261 78.962 164.299 73.8099 170.804 68.4131C198.478 45.4512 226.967 19.3478 257.255 0C269.5 3.21196 283.788 19.7989 293.288 28.0218C317.087 48.625 340.935 70.2337 366.174 89.038C385.087 103.13 402.516 119.12 421.647 132.902C424.158 134.717 439.44 144.772 437.962 146.946C416.283 160.435 388.973 161.543 367.353 175.739C370.011 184.81 378.19 196.049 378.033 205.217C372.419 214.527 359.397 222.505 351.364 229.924C333.609 246.332 316.473 263.506 298.962 280.185C292.332 286.5 280.065 301.75 270.712 302.973C261.418 298.908 253.897 287.831 247.473 280.283C234.951 265.581 219.587 244.033 202.293 235.049C191.668 229.527 176.13 229.326 165.658 235.321C152.951 242.592 145.223 255.886 135.408 266.326C120.391 282.304 103.886 296.995 87.9891 312.076C85.4511 314.473 71.5272 328.897 69.9131 325.217C72.2501 290.212 70.2337 253.951 69.0598 218.935C54.1794 216.902 38.2935 217.783 23.2826 217.821C15.7772 217.842 7.20109 219.402 0 217.027ZM213.712 149.364C213.696 151.984 213.495 150.772 214.185 153.022C226.522 152.484 241.065 156.011 253.114 153.62C252.484 140.875 251.815 128.114 251.245 115.38C241.804 111.712 224.913 114.435 214.772 114.582C213.451 126.082 215.429 137.967 213.712 149.364ZM215.984 167.435C215.332 168.054 214.679 168.679 214.022 169.299C214.565 178.511 210.457 197.674 215.62 205.342C227.299 204.375 239.136 206.239 250.75 205.359C250.505 195.12 255.837 175.946 251.723 166.717C239.886 166.973 227.734 166 215.984 167.435ZM265.549 149.353C265.755 151.875 265.685 150.538 265.728 153.348C277.962 154.435 290.321 152.712 302.576 152.842C302.082 140.766 300.505 126.897 301.658 114.973C289.94 115.245 278.266 114.413 266.516 115.13C265.418 126.5 266.5 137.995 265.549 149.353ZM265.37 173.679C263.543 184.092 265.478 194.587 265.522 204.984C277.772 204.158 290.049 204.821 302.299 205.255C302.674 192.576 301.5 179.685 303.044 167.065C291.326 165.87 277.663 166.201 266.081 168.185C265.598 172.266 265.848 170.435 265.37 173.679Z" fill="#1567B6"/>
<path fill-rule="evenodd" clip-rule="evenodd" d="M16.0923 451.451C33.7608 449.429 54.0814 453.745 71.3042 449.761C70.7662 440.098 70.1521 429.712 70.864 420.054C78.2173 411.391 88.0053 404.739 96.527 397.261C106.57 388.446 115.761 378.261 127.462 371.592C130.772 379.332 129.288 390.272 129.168 398.576C128.935 414.62 128.94 430.592 129.701 446.609C129.945 451.793 131.641 465.625 128.56 469.962C91.5814 473.288 53.864 467.049 16.8912 469.859C16.0706 463.761 16.7173 457.582 16.0923 451.451Z" fill="#34AE47"/>
<path fill-rule="evenodd" clip-rule="evenodd" d="M68.7826 363.245C76.6848 352.027 89.3153 344.25 99.3316 335.049C118.973 317 138.299 299.011 159.027 282.429C161.011 276.984 160.842 271.277 163.734 266.027C169.179 256.152 183.772 248.658 194.538 254.957C203.424 260.152 206.978 273.815 212.522 281.978C220.87 294.283 233.413 303.777 244.946 312.924C249.435 316.484 254.402 322.38 260.049 324.027C264.745 325.402 270.777 324.777 275.609 324.494C294.755 323.359 307.815 303.674 320.169 291.217C349.897 261.245 380.31 230.609 411.288 202.011C411.06 201.076 405.799 199.538 404.761 198.902C399.598 195.75 395.723 189.815 392.054 185.163C403.446 181.179 415.609 180.081 427.054 176.397C435.228 173.766 443.75 168.12 452.185 166.946C451.522 188.522 452.13 210.538 450.418 232.033C444.081 233.027 438.544 231.842 434.37 226.636C431.576 223.152 430.56 215.223 425.967 216.402C387.908 256.668 346.636 294.761 307.342 333.946C296.19 345.853 276.457 385.484 255.37 364.831C252.832 362.348 251.027 359.255 249.397 356.136C246.207 350.022 244.179 343.473 241.473 337.163C236.957 333.277 231.332 331.391 226.842 327.375C217.565 319.071 209.538 307.647 202.375 297.505C193.739 296.717 185.125 298.098 176.473 297.554C172.163 297.283 168.37 295.255 164.261 296.359C159.043 306.25 149.587 314.022 141.674 321.755C125.908 337.158 109.538 351.924 93.7228 367.277C88.413 372.429 82.8206 377.391 76.9511 381.908C75.2065 383.25 71.3586 387.315 69.1412 386.217C68.4619 378.929 66.8098 370.429 68.7826 363.245Z" fill="#39B243"/>
<path fill-rule="evenodd" clip-rule="evenodd" d="M149.831 349.788C157.799 329.255 194.973 315.201 205.19 341.804C209.88 354.027 207.396 370.701 207.25 383.554C206.913 412.092 205.152 441.636 207.217 470.087C189.32 471.657 166.907 472.734 149.19 469.956C148.559 445.277 148.94 420.56 148.896 395.869C148.869 380.668 147.554 364.859 149.831 349.788Z" fill="#3AB244"/>
<path fill-rule="evenodd" clip-rule="evenodd" d="M226.946 412.815C229.152 399.766 227.652 385.685 228.761 372.435C238.38 375.56 243.114 385.978 251.946 390.799C261.728 396.147 274.614 394.511 285.326 394.348C285.005 411.12 286.033 427.967 285.734 444.772C285.603 451.821 282.951 463.272 285.293 469.826C267.07 466.908 246.022 469.804 227.565 469.918C224.902 451.853 226.701 431.109 226.946 412.815Z" fill="#3AAB47"/>
<path fill-rule="evenodd" clip-rule="evenodd" d="M305.505 374.467C305.853 373.538 306.196 372.614 306.543 371.685C314.788 363.103 324.315 355.707 332.875 347.419C342.293 338.299 351.907 327.337 363.744 321.321C366.168 339.228 364.043 358.44 363.581 376.456C362.782 407.25 362.424 438.13 362.098 468.902C350.141 472.723 333.315 469.206 320.728 468.962C316.598 468.88 310.386 470.141 306.734 468.217C304.549 437.902 302.582 404.745 305.505 374.467Z" fill="#40B149"/>
<path fill-rule="evenodd" clip-rule="evenodd" d="M386.31 298.06C394.364 284.196 411.293 268.174 423.571 257.777C428.647 253.478 436.342 248.657 442.196 254.092C446.674 270.239 442.967 292.158 442.945 308.929C442.875 355 438.424 404.288 445.027 449.907C462.391 449.788 480.054 448.848 497.348 450.701C499.31 457.342 499.81 463.174 500.196 470C462.239 466.989 423.685 471.484 385.668 469.783C383.261 437.31 385.744 403.989 385.663 371.418C385.609 347.625 382.663 321.582 386.31 298.06Z" fill="#44B749"/>
<path fill-rule="evenodd" clip-rule="evenodd" d="M473.924 181.587C474.532 174.995 473.103 175.582 478.196 179.799C488.005 185.924 495.81 194.859 504.543 202.402C510.391 207.451 517.967 211.082 523.266 216.598C507.554 217.864 490.674 215.712 474.831 215.527C472.353 205.06 472.261 192.207 473.924 181.587Z" fill="#1643A0"/>
</svg>
